<mxfile host="65bd71144e">
    <diagram id="QkaWIqXt0scnNjS6O0gz" name="Page-1">
        <mxGraphModel dx="1623" dy="650" grid="1" gridSize="10" guides="1" tooltips="1" connect="1" arrows="1" fold="1" page="1" pageScale="1" pageWidth="850" pageHeight="1100" math="0" shadow="0">
            <root>
                <mxCell id="0"/>
                <mxCell id="1" parent="0"/>
                <mxCell id="10" value="" style="edgeStyle=none;html=1;" parent="1" source="2" target="5" edge="1">
                    <mxGeometry relative="1" as="geometry"/>
                </mxCell>
                <mxCell id="12" style="edgeStyle=none;html=1;exitX=0.013;exitY=0.95;exitDx=0;exitDy=0;entryX=0.583;entryY=0;entryDx=0;entryDy=0;exitPerimeter=0;entryPerimeter=0;" parent="1" source="2" target="4" edge="1">
                    <mxGeometry relative="1" as="geometry">
                        <mxPoint x="120" y="280" as="targetPoint"/>
                    </mxGeometry>
                </mxCell>
                <mxCell id="26" value="" style="edgeStyle=none;html=1;" parent="1" source="2" target="25" edge="1">
                    <mxGeometry relative="1" as="geometry"/>
                </mxCell>
                <mxCell id="2" value="&lt;h2&gt;&lt;b&gt;App&lt;/b&gt;&lt;/h2&gt;&lt;h3&gt;state: &lt;/h3&gt;projects, editFormProject, darkMode&lt;br&gt;&lt;br&gt;&lt;h3&gt;functions: &lt;/h3&gt;createProject, deleteProject, updateProject, getProjects" style="rounded=1;whiteSpace=wrap;html=1;" parent="1" vertex="1">
                    <mxGeometry x="240" y="10" width="340" height="220" as="geometry"/>
                </mxCell>
                <mxCell id="4" value="&lt;h2&gt;Edit Project Form&lt;/h2&gt;" style="rounded=1;whiteSpace=wrap;html=1;" parent="1" vertex="1">
                    <mxGeometry x="60" y="290" width="120" height="60" as="geometry"/>
                </mxCell>
                <mxCell id="5" value="&lt;h2&gt;Create Project Form&lt;/h2&gt;" style="rounded=1;whiteSpace=wrap;html=1;" parent="1" vertex="1">
                    <mxGeometry x="350" y="360" width="120" height="60" as="geometry"/>
                </mxCell>
                <mxCell id="8" value="" style="edgeStyle=none;html=1;" parent="1" source="6" target="7" edge="1">
                    <mxGeometry relative="1" as="geometry"/>
                </mxCell>
                <mxCell id="28" value="" style="edgeStyle=none;html=1;entryX=0.25;entryY=0;entryDx=0;entryDy=0;" edge="1" parent="1" source="6" target="13">
                    <mxGeometry relative="1" as="geometry"/>
                </mxCell>
                <mxCell id="6" value="&lt;h2&gt;Project List&lt;/h2&gt;state: searchFilter, searchPhase" style="rounded=1;whiteSpace=wrap;html=1;" parent="1" vertex="1">
                    <mxGeometry x="640" y="300" width="210" height="100" as="geometry"/>
                </mxCell>
                <mxCell id="7" value="&lt;h2&gt;Project Item&lt;/h2&gt;" style="rounded=1;whiteSpace=wrap;html=1;" parent="1" vertex="1">
                    <mxGeometry x="660" y="480" width="120" height="60" as="geometry"/>
                </mxCell>
                <mxCell id="13" value="&lt;h2&gt;&lt;b&gt;Search&lt;/b&gt;&lt;/h2&gt;events: onChange, onClick" style="whiteSpace=wrap;html=1;rounded=1;" parent="1" vertex="1">
                    <mxGeometry x="850" y="470" width="190" height="80" as="geometry"/>
                </mxCell>
                <mxCell id="15" value="updateSearchFilter,&lt;br&gt;updatePhaseFilter" style="text;html=1;align=center;verticalAlign=middle;resizable=0;points=[];autosize=1;strokeColor=none;fillColor=none;" parent="1" vertex="1">
                    <mxGeometry x="850" y="400" width="130" height="40" as="geometry"/>
                </mxCell>
                <mxCell id="18" value="project,&lt;br&gt;updateProjectFormItem,&lt;br&gt;deleteProject" style="text;html=1;align=center;verticalAlign=middle;resizable=0;points=[];autosize=1;strokeColor=none;fillColor=none;" parent="1" vertex="1">
                    <mxGeometry x="570" y="400" width="150" height="60" as="geometry"/>
                </mxCell>
                <mxCell id="20" value="projectFormItem,&lt;br&gt;updateProject" style="text;html=1;align=center;verticalAlign=middle;resizable=0;points=[];autosize=1;strokeColor=none;fillColor=none;" parent="1" vertex="1">
                    <mxGeometry x="90" y="220" width="110" height="40" as="geometry"/>
                </mxCell>
                <mxCell id="21" value="createProject" style="text;html=1;align=center;verticalAlign=middle;resizable=0;points=[];autosize=1;strokeColor=none;fillColor=none;" parent="1" vertex="1">
                    <mxGeometry x="410" y="280" width="90" height="30" as="geometry"/>
                </mxCell>
                <mxCell id="17" value="projects,&amp;nbsp;&lt;br&gt;updateEditFormProject,&lt;br&gt;deleteProject" style="text;html=1;align=center;verticalAlign=middle;resizable=0;points=[];autosize=1;strokeColor=none;fillColor=none;rotation=0;" parent="1" vertex="1">
                    <mxGeometry x="580" y="220" width="150" height="60" as="geometry"/>
                </mxCell>
                <mxCell id="23" value="" style="edgeStyle=none;orthogonalLoop=1;jettySize=auto;html=1;entryX=0;entryY=0;entryDx=0;entryDy=0;" parent="1" target="6" edge="1">
                    <mxGeometry width="100" relative="1" as="geometry">
                        <mxPoint x="520" y="230" as="sourcePoint"/>
                        <mxPoint x="620" y="230" as="targetPoint"/>
                        <Array as="points"/>
                    </mxGeometry>
                </mxCell>
                <mxCell id="25" value="&lt;h2&gt;Header&lt;/h2&gt;" style="rounded=1;whiteSpace=wrap;html=1;" parent="1" vertex="1">
                    <mxGeometry x="-10" y="90" width="120" height="60" as="geometry"/>
                </mxCell>
                <mxCell id="27" value="updateDarkMode" style="text;html=1;align=center;verticalAlign=middle;resizable=0;points=[];autosize=1;strokeColor=none;fillColor=none;" parent="1" vertex="1">
                    <mxGeometry x="120" y="90" width="120" height="30" as="geometry"/>
                </mxCell>
            </root>
        </mxGraphModel>
    </diagram>
</mxfile>